#!OML:ASF C:\Vicon Data\Big\jianyuan-12\jianyuan\Session 1\Capture.male.ASF
:FULLY-SPECIFIED
:DEGREES
56
root -8.858730 17.418161 -19.310567 2.320857 -6.185783 5.907761
lowerback -8.393743 -2.125594 -3.770276 
upperback 2.511538 -2.413205 0.037193 
thorax 7.527667 -1.353017 1.798987 
lowerneck 2.366962 -11.103326 -6.088027 
upperneck -1.639077 -14.750260 14.586183 
head 0.701860 -7.407873 5.151129 
rclavicle 0.000000 0.000000 
rhumerus -34.937995 -29.508371 -79.177251 
rradius 33.483040 
rwrist 35.611388 
rhand -19.884508 -5.416284 
rfingers 0.000000 
rthumb 6.451307 -35.298035 
lclavicle 0.000000 0.000000 
lhumerus -35.459357 31.017400 74.320931 
lradius 27.257867 
lwrist -53.136000 
lhand -7.832678 4.277574 
lfingers 0.000000 
lthumb 18.069839 33.458189 
rfemur -18.939830 -0.873566 24.432917 
rtibia 32.898123 
rfoot -25.114138 -7.230406 
rtoes 8.473872 
lfemur -23.189008 6.333013 -20.083793 
ltibia 70.177415 
lfoot -5.482055 7.149598 
ltoes -27.014554 
57
root -8.877168 17.413915 -19.245324 2.271962 -6.351046 5.972606
lowerback -8.297388 -2.087012 -3.849501 
upperback 2.512196 -2.354977 0.016441 
thorax 7.471787 -1.326842 1.833681 
lowerneck 2.428363 -11.114597 -6.063706 
upperneck -1.656261 -14.764023 14.569119 
head 0.685051 -7.417777 5.146601 
rclavicle 0.000000 0.000000 
rhumerus -34.639736 -29.033427 -79.492584 
rradius 33.759086 
rwrist 35.418618 
rhand -19.951920 -5.338544 
rfingers 0.000000 
rthumb 6.386211 -35.222227 
lclavicle 0.000000 0.000000 
lhumerus -36.116470 31.822458 73.584671 
lradius 26.992949 
lwrist -53.954881 
lhand -7.930166 4.178068 
lfingers 0.000000 
lthumb 17.975996 33.367299 
rfemur -18.646273 -0.660354 24.422823 
rtibia 32.968155 
rfoot -25.461846 -7.153871 
rtoes 8.555659 
lfemur -23.859121 6.001448 -20.142516 
ltibia 70.060124 
lfoot -5.732002 6.715805 
ltoes -27.281301 
58
root -8.898172 17.411500 -19.168829 2.341000 -6.722958 6.149351
lowerback -8.471765 -1.987382 -4.003058 
upperback 2.503718 -2.191288 -0.050260 
thorax 7.556766 -1.252802 1.869200 
lowerneck 2.430634 -11.137410 -6.018303 
upperneck -1.613352 -14.799385 14.458931 
head 0.688703 -7.434767 5.105268 
rclavicle 0.000000 0.000000 
rhumerus -34.277712 -28.766882 -79.838136 
rradius 33.984944 
rwrist 35.127727 
rhand -20.102639 -5.353623 
rfingers 0.000000 
rthumb 6.240697 -35.241668 
lclavicle 0.000000 0.000000 
lhumerus -36.689600 32.440027 72.963662 
lradius 26.847329 
lwrist -53.960195 
lhand -7.745419 4.289742 
lfingers 0.000000 
lthumb 18.153744 33.462506 
rfemur -18.478892 -0.538086 24.278604 
rtibia 33.056328 
rfoot -25.623600 -6.877110 
rtoes 8.496093 
lfemur -24.536391 5.826302 -20.340967 
ltibia 69.845801 
lfoot -5.902876 6.372241 
ltoes -26.542003 
59
root -8.917166 17.406315 -19.100781 2.323331 -7.041204 6.166390
lowerback -8.447163 -1.886884 -3.997933 
upperback 2.500239 -2.056108 -0.082955 
thorax 7.528187 -1.185063 1.853423 
lowerneck 2.456984 -11.160729 -5.935263 
upperneck -1.588866 -14.831610 14.348254 
head 0.679834 -7.451538 5.060746 
rclavicle 0.000000 0.000000 
rhumerus -33.896014 -28.442683 -80.163105 
rradius 34.116525 
rwrist 34.772231 
rhand -20.199547 -4.945325 
rfingers 0.000000 
rthumb 6.147171 -34.836123 
lclavicle 0.000000 0.000000 
lhumerus -37.298983 32.843620 72.367321 
lradius 26.604630 
lwrist -54.763004 
lhand -8.056874 4.506441 
lfingers 0.000000 
lthumb 17.854102 33.706808 
rfemur -18.243329 -0.389864 24.315312 
rtibia 33.149598 
rfoot -25.857965 -6.643436 
rtoes 8.416159 
lfemur -25.163132 5.615425 -20.340253 
ltibia 69.579286 
lfoot -6.501387 5.950827 
ltoes -27.877346 
60
root -8.937414 17.400596 -19.039826 2.270360 -7.372754 6.184599
lowerback -8.299103 -1.788619 -4.031023 
upperback 2.486637 -1.926731 -0.100929 
thorax 7.420172 -1.121055 1.877189 
lowerneck 2.517680 -11.176830 -5.921712 
upperneck -1.589822 -14.854967 14.297405 
head 0.666944 -7.465891 5.047041 
rclavicle 0.000000 0.000000 
rhumerus -33.523804 -28.165360 -80.465731 
rradius 34.288984 
rwrist 34.707196 
rhand -20.198551 -5.060733 
rfingers 0.000000 
rthumb 6.148158 -34.951485 
lclavicle 0.000000 0.000000 
lhumerus -37.926058 33.351838 71.727210 
lradius 26.434279 
lwrist -55.135178 
lhand -8.057825 4.506763 
lfingers 0.000000 
lthumb 17.853186 33.707246 
rfemur -17.987510 -0.233979 24.364145 
rtibia 33.217282 
rfoot -26.012192 -6.393396 
rtoes 8.086035 
lfemur -25.772393 5.419538 -20.306403 
ltibia 69.265593 
lfoot -6.958631 5.552390 
ltoes -28.371100 
